<svg width="34" height="34" viewBox="0 0 34 34" fill="none" xmlns="http://www.w3.org/2000/svg">
<g id="Gmail">
<path id="Vector" d="M5.83064 26.7057H9.95766V16.7L4.05505 12.3091V24.9541C4.05505 25.9139 4.84687 26.7057 5.83064 26.7057Z" fill="#4285F4"/>
<path id="Vector_2" d="M24.0663 26.7057H28.1934C29.1771 26.7057 29.969 25.9139 29.969 24.9301V12.3091L24.0903 16.724V26.7057H24.0663Z" fill="#34A853"/>
<path id="Vector_3" d="M24.0663 9.06992V16.7241L29.945 12.3092V9.95771C29.945 7.77422 27.4495 6.52651 25.698 7.8462L24.0663 9.06992Z" fill="#FBBC04"/>
<path id="Vector_4" fill-rule="evenodd" clip-rule="evenodd" d="M9.93365 16.7V9.06982L16.988 14.3726L24.0423 9.06982V16.724L17.012 22.0028L9.93365 16.7Z" fill="#EA4335"/>
<path id="Vector_5" d="M4.05505 9.93364V12.2851L9.93367 16.7V9.06984L8.27806 7.82214C6.55047 6.52644 4.05505 7.77415 4.05505 9.93364Z" fill="#C5221F"/>
</g>
</svg>
