<svg width="40" height="40" viewBox="0 0 40 40" fill="none" xmlns="http://www.w3.org/2000/svg">
<g id="Group">
<path id="Vector" d="M40 0H0V40H40V0Z" fill="#0084B1"/>
<g id="Group_2">
<path id="Vector_2" d="M9.4139 6.0752C11.2459 6.07669 12.7569 7.58986 12.753 9.43104C12.7486 11.3589 11.1487 12.812 9.39134 12.7701C7.60889 12.8062 6.04243 11.3174 6.04279 9.41831C6.04279 7.57643 7.55965 6.07379 9.4139 6.0752Z" fill="white"/>
<path id="Vector_3" d="M11.3603 33.9212H7.43508C6.92566 33.9212 6.5127 33.5083 6.5127 32.9988V16.2537C6.5127 15.7443 6.92566 15.3313 7.43508 15.3313H11.3603C11.8697 15.3313 12.2827 15.7443 12.2827 16.2537V32.9989C12.2826 33.5083 11.8697 33.9212 11.3603 33.9212Z" fill="white"/>
<path id="Vector_4" d="M33.9572 21.2128C33.9572 17.7023 31.1114 14.8564 27.6009 14.8564H26.5941C24.6735 14.8564 22.9767 15.8147 21.9561 17.2795C21.8448 17.4391 21.7418 17.6049 21.6472 17.7761C21.6144 17.7711 21.595 17.7686 21.5946 17.7695V15.7141C21.5946 15.5026 21.4232 15.3311 21.2117 15.3311H16.3145C16.103 15.3311 15.9315 15.5025 15.9315 15.7141V33.5383C15.9315 33.7498 16.1028 33.9212 16.3143 33.9213L21.3182 33.9225C21.5297 33.9226 21.7012 33.7511 21.7012 33.5396V23.242C21.7012 21.462 23.1209 19.984 24.9008 19.9639C25.8095 19.9537 26.6332 20.3177 27.2269 20.9118C27.8127 21.4973 28.175 22.3069 28.175 23.2008V33.5409C28.175 33.7523 28.3464 33.9237 28.5577 33.9238L33.574 33.9251C33.7856 33.9252 33.9571 33.7536 33.9571 33.5421V21.2128H33.9572Z" fill="white"/>
</g>
</g>
</svg>
