<svg width="40" height="40" viewBox="0 0 40 40" fill="none" xmlns="http://www.w3.org/2000/svg">
<g id="instagram 1" clip-path="url(#clip0_2_1183)">
<path id="Path 16" d="M10.1431 39.8584C8.59597 39.8412 7.06334 39.5574 5.61255 39.0196C4.55312 38.628 3.59459 38.0046 2.80706 37.1949C1.9952 36.4089 1.37086 35.4502 0.980392 34.3898C0.44304 32.9391 0.159679 31.4066 0.142745 29.8596C0.0239216 27.2878 0 26.5165 0 20C0 13.4835 0.0262745 12.7149 0.141569 10.1412C0.160558 8.59481 0.444268 7.06313 0.980392 5.61255C1.37276 4.55294 1.99622 3.59403 2.80549 2.80549C3.59205 1.99436 4.55102 1.3706 5.61137 0.980392C7.06217 0.442595 8.59479 0.158835 10.142 0.141569C12.7145 0.0239216 13.4871 0 20 0C26.5129 0 27.2851 0.0262745 29.8588 0.141569C31.4056 0.160424 32.9377 0.444135 34.3886 0.980392C35.4485 1.37111 36.4072 1.99466 37.1941 2.8051C38.0048 3.59225 38.6286 4.55121 39.0196 5.61137C39.5575 7.06214 39.8414 8.59477 39.8588 10.142C39.9765 12.7157 40.0004 13.4863 40.0004 20.0008C40.0004 26.5153 39.9765 27.2859 39.8588 29.8596C39.8402 31.4065 39.5563 32.9388 39.0196 34.3898C38.6136 35.442 37.9919 36.3976 37.1943 37.195C36.3967 37.9924 35.441 38.6139 34.3886 39.0196C32.9379 39.5575 31.4052 39.8414 29.858 39.8588C27.2867 39.9765 26.5137 40.0004 19.9992 40.0004C13.4847 40.0004 12.7141 39.9776 10.1427 39.8588" fill="url(#paint0_radial_2_1183)"/>
<path id="Path 17" d="M10.1431 39.8584C8.59597 39.8412 7.06334 39.5574 5.61255 39.0196C4.55312 38.628 3.59459 38.0046 2.80706 37.1949C1.9952 36.4089 1.37086 35.4502 0.980392 34.3898C0.44304 32.9391 0.159679 31.4066 0.142745 29.8596C0.0239216 27.2878 0 26.5165 0 20C0 13.4835 0.0262745 12.7149 0.141569 10.1412C0.160558 8.59481 0.444268 7.06313 0.980392 5.61255C1.37276 4.55294 1.99622 3.59403 2.80549 2.80549C3.59205 1.99436 4.55102 1.3706 5.61137 0.980392C7.06217 0.442595 8.59479 0.158835 10.142 0.141569C12.7145 0.0239216 13.4871 0 20 0C26.5129 0 27.2851 0.0262745 29.8588 0.141569C31.4056 0.160424 32.9377 0.444135 34.3886 0.980392C35.4485 1.37111 36.4072 1.99466 37.1941 2.8051C38.0048 3.59225 38.6286 4.55121 39.0196 5.61137C39.5575 7.06214 39.8414 8.59477 39.8588 10.142C39.9765 12.7157 40.0004 13.4863 40.0004 20.0008C40.0004 26.5153 39.9765 27.2859 39.8588 29.8596C39.8402 31.4065 39.5563 32.9388 39.0196 34.3898C38.6136 35.442 37.9919 36.3976 37.1943 37.195C36.3967 37.9924 35.441 38.6139 34.3886 39.0196C32.9379 39.5575 31.4052 39.8414 29.858 39.8588C27.2867 39.9765 26.5137 40.0004 19.9992 40.0004C13.4847 40.0004 12.7141 39.9776 10.1427 39.8588" fill="url(#paint1_radial_2_1183)"/>
<path id="Path 18" d="M15.089 20.085C15.0891 19.1053 15.3797 18.1477 15.9241 17.3331C16.4684 16.5186 17.2421 15.8838 18.1473 15.509C19.0524 15.1341 20.0484 15.0362 21.0092 15.2274C21.9701 15.4186 22.8526 15.8905 23.5453 16.5833C24.238 17.2761 24.7096 18.1588 24.9006 19.1197C25.0916 20.0806 24.9934 21.0766 24.6184 21.9816C24.2433 22.8867 23.6083 23.6602 22.7937 24.2044C21.979 24.7486 21.0213 25.0389 20.0416 25.0388C18.7279 25.0386 17.4682 24.5165 16.5394 23.5876C15.6106 22.6586 15.0889 21.3987 15.089 20.085ZM12.411 20.085C12.411 21.5942 12.8585 23.0695 13.697 24.3244C14.5354 25.5792 15.7272 26.5573 17.1215 27.1348C18.5158 27.7123 20.05 27.8634 21.5302 27.569C23.0104 27.2746 24.3701 26.5478 25.4372 25.4807C26.5044 24.4135 27.2311 23.0539 27.5255 21.5737C27.82 20.0935 27.6689 18.5592 27.0913 17.1649C26.5138 15.7706 25.5357 14.5789 24.2809 13.7404C23.0261 12.902 21.5508 12.4545 20.0416 12.4545C19.0395 12.4544 18.0472 12.6517 17.1214 13.0352C16.1956 13.4186 15.3544 13.9807 14.6458 14.6893C13.9372 15.3979 13.3752 16.2391 12.9917 17.1649C12.6083 18.0907 12.4109 19.083 12.411 20.085ZM26.191 12.1521C26.1908 12.5048 26.2953 12.8496 26.4911 13.1429C26.6869 13.4362 26.9653 13.6649 27.291 13.8C27.6168 13.9351 27.9753 13.9706 28.3212 13.9019C28.6672 13.8333 28.985 13.6636 29.2344 13.4143C29.4839 13.165 29.6539 12.8474 29.7228 12.5015C29.7918 12.1557 29.7566 11.7971 29.6218 11.4712C29.487 11.1453 29.2586 10.8668 28.9654 10.6707C28.6723 10.4746 28.3276 10.3699 27.9749 10.3698C27.5022 10.37 27.0489 10.5578 26.7145 10.892C26.3802 11.2262 26.1922 11.6794 26.1918 12.1521M14.0388 32.1811C13.0965 32.1708 12.163 31.9983 11.2792 31.6713C10.6383 31.4243 10.0562 31.0458 9.57033 30.5601C9.08451 30.0745 8.70575 29.4926 8.45844 28.8517C8.13129 27.9679 7.95884 27.0344 7.94864 26.0921C7.87648 24.5258 7.86236 24.0552 7.86236 20.087C7.86236 16.1188 7.87805 15.6494 7.94864 14.0815C7.96007 13.1393 8.13248 12.206 8.45844 11.3219C8.70547 10.6808 9.08411 10.0985 9.56996 9.61264C10.0558 9.12679 10.6381 8.74815 11.2792 8.50112C12.163 8.17398 13.0965 8.00153 14.0388 7.99132C15.6051 7.91916 16.0757 7.90505 20.0424 7.90505C24.009 7.90505 24.48 7.92034 26.0478 7.99172C26.99 8.00315 27.9234 8.17556 28.8075 8.50152C29.4486 8.74857 30.0309 9.12722 30.5167 9.61306C31.0025 10.0989 31.3812 10.6812 31.6282 11.3223C31.9554 12.2061 32.1278 13.1396 32.138 14.0819C32.2102 15.6505 32.2243 16.1188 32.2243 20.0874C32.2243 24.056 32.2098 24.525 32.138 26.0929C32.1271 27.0351 31.9546 27.9685 31.6282 28.8525C31.3809 29.4933 31.0022 30.0753 30.5163 30.5609C30.0305 31.0465 29.4484 31.4251 28.8075 31.6721C27.9237 31.9992 26.9902 32.1717 26.0478 32.1819C24.4816 32.2541 24.011 32.2682 20.0424 32.2682C16.0737 32.2682 15.6047 32.2537 14.0388 32.1819M13.9157 5.31564C12.6827 5.33988 11.4627 5.57325 10.3079 6.00582C9.3206 6.38754 8.424 6.97134 7.67555 7.7198C6.92709 8.46825 6.34329 9.36485 5.96157 10.3521C5.52906 11.507 5.29569 12.7269 5.27139 13.9599C5.19805 15.5443 5.18158 16.0509 5.18158 20.0866C5.18158 24.1223 5.19844 24.6286 5.27139 26.2133C5.29568 27.4463 5.52905 28.6662 5.96157 29.8211C6.34331 30.8084 6.92712 31.7049 7.67557 32.4534C8.42403 33.2019 9.32061 33.7857 10.3079 34.1674C11.4628 34.5998 12.6827 34.8332 13.9157 34.8576C15.5008 34.9298 16.0067 34.9474 20.0424 34.9474C24.078 34.9474 24.5843 34.9305 26.169 34.8576C27.402 34.8332 28.6219 34.5999 29.7769 34.1674C30.7641 33.7857 31.6607 33.2019 32.4091 32.4534C33.1576 31.7049 33.7414 30.8084 34.1231 29.8211C34.5562 28.6664 34.7896 27.4463 34.8133 26.2133C34.8855 24.6278 34.902 24.1223 34.902 20.0866C34.902 16.0509 34.8851 15.5447 34.8133 13.9599C34.7891 12.7269 34.5557 11.507 34.1231 10.3521C33.7414 9.36504 33.1578 8.46858 32.4095 7.72015C31.6613 6.97171 30.765 6.3878 29.7781 6.00582C28.6232 5.57297 27.4032 5.33959 26.1702 5.31564C24.5855 5.24309 24.0792 5.22583 20.0443 5.22583C16.0094 5.22583 15.502 5.24269 13.9165 5.31564" fill="white"/>
</g>
<defs>
<radialGradient id="paint0_radial_2_1183" cx="0" cy="0" r="1" gradientUnits="userSpaceOnUse" gradientTransform="translate(2.58863 39.1239) scale(50.7851)">
<stop offset="0.09" stop-color="#FA8F21"/>
<stop offset="0.78" stop-color="#D82D7E"/>
</radialGradient>
<radialGradient id="paint1_radial_2_1183" cx="0" cy="0" r="1" gradientUnits="userSpaceOnUse" gradientTransform="translate(27.7067 37.8392) scale(44.6914)">
<stop offset="0.64" stop-color="#8C3AAA" stop-opacity="0"/>
<stop offset="1" stop-color="#8C3AAA"/>
</radialGradient>
<clipPath id="clip0_2_1183">
<rect width="40" height="40" fill="white"/>
</clipPath>
</defs>
</svg>
